HIERARCHY
ROOT Hips
{
  OFFSET 0.0 0.0 0.0
  CHANNELS 6 Xposition Yposition Zposition Zrotation Xrotation Yrotation
  JOINT LeftHip
  {
    OFFSET 3.43 0 0
    CHANNELS 3 Zrotation Xrotation Yrotation
    JOINT LeftKnee
    {
      OFFSET 0 -18.47 0
      CHANNELS 3 Zrotation Xrotation Yrotation
      JOINT LeftAnkle
      {
        OFFSET 0 -17.95 0
        CHANNELS 3 Zrotation Xrotation Yrotation
        End Site
        {
          OFFSET 0 -3.12 0
        }
      }
    }
  }
  JOINT RightHip
  {
    OFFSET -3.43 0 0
    CHANNELS 3 Zrotation Xrotation Yrotation
    JOINT RightKnee
    {
      OFFSET 0 -18.47 0
      CHANNELS 3 Zrotation Xrotation Yrotation
      JOINT RightAnkle
      {
        OFFSET 0 -17.95 0
        CHANNELS 3 Zrotation Xrotation Yrotation
        End Site
        {
          OFFSET 0 -3.12 0
        }
      }
    }
  }
  JOINT Chest
  {
    OFFSET 0 4.57 0
    CHANNELS 3 Zrotation Xrotation Yrotation
    JOINT CS_BVH
    {
      OFFSET 0 6.57 0
      CHANNELS 3 Zrotation Xrotation Yrotation
      JOINT LeftCollar
      {
        OFFSET 1.06 4.19 1.76
        CHANNELS 3 Zrotation Xrotation Yrotation
        JOINT LeftShoulder
        {
          OFFSET 5.81 0 0
          CHANNELS 3 Zrotation Xrotation Yrotation
          JOINT LeftElbow
          {
            OFFSET 0 -12.08 0
            CHANNELS 3 Zrotation Xrotation Yrotation
            JOINT LeftWrist
            {
              OFFSET 0 -9.82 0
              CHANNELS 3 Zrotation Xrotation Yrotation
              End Site
              {
                OFFSET 0 -7.37 0
              }
            }
          }
        }
      }
      JOINT RightCollar
      {
        OFFSET -1.06 4.19 1.76
        CHANNELS 3 Zrotation Xrotation Yrotation
        JOINT RightShoulder
        {
          OFFSET -6.06 0 0
          CHANNELS 3 Zrotation Xrotation Yrotation
          JOINT RightElbow
          {
            OFFSET 0 -11.08 0
            CHANNELS 3 Zrotation Xrotation Yrotation
            JOINT RightWrist
            {
              OFFSET 0 -9.82 0
              CHANNELS 3 Zrotation Xrotation Yrotation
              End Site
              {
                OFFSET 0 -7.14001 0
              }
            }
          }
        }
      }
      JOINT Neck
      {
        OFFSET 0 4.05 0
        CHANNELS 3 Zrotation Xrotation Yrotation
        JOINT Head
        {
          OFFSET 0 5.19 0
          CHANNELS 3 Zrotation Xrotation Yrotation
          End Site
          {
            OFFSET 0 4.14001 0
          }
        }
      }
    }
  }
}
MOTION
Frames:	20
Frame Time:	0.0333333
-36.8443 39.4194 -1.08749 0.579126 -0.0247727 0.0148299 2.37922 -5.60703 -0.0463075 -0.00632574 11.4232 -0.123074 -2.95929 -5.79224 -0.145412 -3.56097 -8.69204 -0.000943781 -0.01307 17.6929 0.20138 2.99994 -8.97398 0.258822 -0.787971 -0.0255961 0.0195949 -0.190774 -0.0461918 0.0311285 10 -5.92627e-014 1.10698e-014 80 -1.21383e-014 4.59157e-012 5.68595e-011 -5.99609e-013 1.9829e-010 0.00234982 -7.50821e-012 1.08205e-009 -10 -5.80079e-014 -8.82728e-015 -80 -9.09813e-014 -4.46557e-012 7.33779e-011 -1.69896e-012 -1.93844e-010 2.329e-010 -2.35325e-011 -1.05812e-009 -4.15629e-014 -4.06018e-014 9.93923e-016 -1.30318e-013 -2.23484e-013 3.88872e-015 
-36.4088 39.0306 -3.03203 -16.3878 -1.99181 120.363 -3.21039 -19.2357 -4.4839 -0.00619174 21.7434 -0.374274 -11.2627 -22.6953 -24.7964 3.8626 -9.58056 5.00272 -0.0802654 15.1715 -0.0715872 -13.9037 -31.7453 -45.6958 -21.249 -32.2957 -29.4015 2.9381 21.5845 -6.45561 10 -5.92627e-014 1.10698e-014 -6.60703 -2.58896 -26.3206 13.7321 -21.6901 4.3485 0.000894181 0.0789891 1.05575 -10 -5.80079e-014 -8.82728e-015 13.7194 1.57785 10.6976 -14.472 -22.4226 -5.19179 1.03795 -3.16636 33.7809 -5.54104 -7.94157 -10.6533 7.07948 20.3407 -21.3931 
-36.3691 39.0315 -3.0079 -15.8533 -2.09343 119.826 -2.45746 -18.6844 -3.98392 -0.00903564 21.5346 -0.370335 -11.1947 -22.8143 -24.4873 4.50026 -9.23074 5.58457 -0.0829473 15.2724 -0.0524246 -13.4263 -31.2149 -45.5897 -20.3538 -31.8724 -28.666 2.60335 20.4278 -6.26505 10 -5.92627e-014 1.10698e-014 -6.59241 -1.66814 -25.476 13.5241 -21.4064 4.24951 0.0021557 0.0288498 0.385521 -10 -5.80079e-014 -8.82728e-015 14.1366 2.72741 11.3592 -14.8084 -22.8608 -5.36723 0.971917 -3.07025 32.6139 -5.46014 -7.51086 -10.2334 7.53373 21.1989 -20.7204 
-36.3749 39.0349 -3.00996 -15.4352 -2.05042 119.777 -2.32926 -18.2797 -4.13509 -0.0103307 21.545 -0.368376 -11.1234 -22.9643 -24.1461 4.62653 -8.89065 5.60405 -0.081922 15.3213 -0.0505258 -13.4358 -31.2116 -45.572 -19.9296 -31.3095 -28.3515 2.69809 20.2446 -6.27687 10 -5.92627e-014 1.10698e-014 -6.73167 -1.64302 -25.1207 13.4788 -21.3444 4.22808 0.00234691 0.00353003 0.047168 -10 -5.80079e-014 -8.82728e-015 14.3378 2.71654 10.7739 -14.6715 -22.683 -5.29557 0.998699 -3.10974 33.0914 -5.49826 -7.58571 -9.98701 7.72759 21.3163 -20.2489 
-36.3818 39.0369 -3.00966 -15.1005 -2.0288 119.752 -2.21395 -17.978 -4.31059 -0.0114791 21.5312 -0.368089 -11.0699 -22.992 -23.9932 4.74619 -8.65538 5.60879 -0.0809151 15.4203 -0.0491145 -13.5745 -31.24 -45.6333 -19.6342 -30.8262 -28.0345 2.76071 20.0322 -6.26087 10 -5.92627e-014 1.10698e-014 -6.7856 -1.47668 -25.3043 13.5809 -21.4839 4.2764 0.00227855 0.0174466 0.234045 -10 -5.80079e-014 -8.82728e-015 14.5654 2.99746 10.4912 -14.7075 -22.7297 -5.31443 1.04587 -3.1776 33.9184 -5.84483 -7.57316 -9.76667 8.59337 21.6965 -19.9408 
-36.4052 39.039 -3.00097 -15.1204 -2.17283 119.822 -2.13922 -18.1284 -4.34128 -0.0123406 21.588 -0.367814 -11.051 -22.9485 -23.9598 4.84826 -8.77473 5.54279 -0.0800533 15.4317 -0.0481008 -13.5585 -31.2801 -45.5467 -19.5517 -30.8624 -28.0481 2.81941 20.1657 -6.28741 10 -5.92627e-014 1.10698e-014 -6.99432 -1.54806 -24.9512 13.5626 -21.459 4.26782 0.00234959 -0.000985133 -0.0131632 -10 -5.80079e-014 -8.82728e-015 14.7299 3.02194 10.3312 -14.5243 -22.491 -5.21893 1.06369 -3.20271 34.2266 -5.59774 -7.67416 -9.67279 8.19477 22.0547 -19.7105 
-36.4228 39.0477 -2.99799 -15.026 -2.22734 119.808 -2.05655 -18.0509 -4.37818 -0.0142572 21.4931 -0.367004 -10.9756 -22.8781 -23.8574 4.91283 -8.674 5.54879 -0.0793841 15.3004 -0.0474159 -13.4378 -31.2411 -45.5551 -19.4722 -30.734 -28.0359 2.98773 20.2373 -6.3359 10 -5.92627e-014 1.10698e-014 -7.23139 -1.40655 -25.0753 13.7819 -21.7578 4.37358 0.00208447 0.0337296 0.450739 -10 -5.80079e-014 -8.82728e-015 14.8717 3.18954 10.0518 -14.5043 -22.465 -5.20861 1.08632 -3.23496 34.6242 -5.98697 -7.60135 -9.44384 8.95759 22.4773 -19.3704 
-36.4295 39.0491 -2.99154 -14.9043 -2.34171 119.887 -1.92741 -18.0649 -4.53928 -0.014727 21.582 -0.366525 -10.9206 -22.8613 -23.7105 5.07747 -8.66699 5.47253 -0.0786545 15.3262 -0.0470705 -13.4138 -31.2197 -45.5816 -19.3146 -30.5314 -28.0443 3.0396 20.2497 -6.37987 10 -5.92627e-014 1.10698e-014 -7.41992 -1.40974 -24.85 13.7702 -21.7421 4.36676 0.00219163 0.0250511 0.361788 -10 -5.80079e-014 -8.82728e-015 14.9739 3.30514 10.2228 -14.5021 -22.4809 -5.21524 1.086 -3.22763 34.5337 -4.81878 -7.52996 -9.45232 6.92792 22.5237 -19.1402 
-36.4168 39.0558 -2.99921 -14.5733 -2.20784 119.81 -1.92666 -17.6258 -4.79005 -0.0157366 21.5383 -0.365595 -10.8207 -22.9289 -23.3748 5.17186 -8.26065 5.53883 -0.0780482 15.3026 -0.0469597 -13.4393 -31.2516 -45.5944 -19.1977 -30.0888 -27.8149 3.06422 20.2998 -6.36561 10 -5.92627e-014 1.10698e-014 -7.46654 -1.50236 -24.5745 13.7209 -21.6749 4.34316 0.0023293 0.0093809 0.125349 -10 -5.80079e-014 -8.82728e-015 15.1192 3.33049 10.031 -14.5126 -22.4806 -5.22113 1.09431 -3.24518 34.7507 -4.74442 -7.42727 -9.23769 7.02094 22.4763 -18.7369 
-36.4409 39.0562 -2.99222 -14.2947 -2.34286 119.927 -1.73663 -17.5894 -4.99048 -0.0145089 21.7389 -0.365181 -10.825 -23.049 -23.2531 5.43657 -8.17559 5.41644 -0.0774302 15.394 -0.0470629 -13.3753 -31.1823 -45.6204 -18.9135 -29.7065 -27.6736 3.04895 20.2103 -6.37964 10 -5.92627e-014 1.10698e-014 -7.38373 -1.49031 -24.8035 13.6662 -21.6008 4.30943 0.0021553 0.0288796 0.38592 -10 -5.80079e-014 -8.82728e-015 15.2056 3.32732 9.85479 -14.523 -22.4894 -5.21824 1.09175 -3.24166 34.7071 -4.60549 -7.25004 -9.17636 7.30935 22.6615 -18.7054 
-36.4669 39.0605 -2.98907 -14.0756 -2.41529 119.972 -1.72259 -17.4896 -5.45592 -0.0130093 21.8698 -0.36451 -10.7255 -23.1913 -22.8658 5.50875 -8.09124 5.34211 -0.0769232 15.462 -0.0472915 -13.3704 -31.2776 -45.4145 -18.6009 -29.4013 -27.5619 3.03964 20.1994 -6.392 10 -5.92627e-014 1.10698e-014 -7.50214 -1.4213 -24.608 13.7251 -21.6807 4.34517 0.00229982 0.014642 0.195653 -10 -5.80079e-014 -8.82728e-015 15.1729 3.22092 9.65736 -14.4827 -22.4367 -5.19732 1.07838 -3.22319 34.479 -4.42355 -7.33098 -9.10373 7.12452 22.9256 -18.5446 
-36.5097 39.0656 -2.98224 -13.9254 -2.56647 120.112 -1.60015 -17.5917 -5.52342 -0.0103516 22.0325 -0.363855 -10.6927 -23.1302 -22.8455 5.61839 -8.13734 5.17992 -0.0765021 15.5417 -0.0475959 -13.3102 -31.238 -45.3785 -18.2292 -29.156 -27.5195 3.00488 20.2093 -6.4305 10 -5.92627e-014 1.10698e-014 -7.48097 -1.44398 -24.5627 13.7076 -21.6569 4.33688 0.00229885 0.0147838 0.197547 -10 -5.80079e-014 -8.82728e-015 15.1278 3.18531 9.61486 -14.5596 -22.5371 -5.2373 1.06051 -3.19825 34.1718 -4.47875 -7.58873 -9.02806 7.29657 23.1108 -18.4061 
-36.5333 39.0745 -3.0029 -13.7498 -2.64558 120.195 -1.51362 -17.4688 -5.66535 -0.00798352 21.9876 -0.362618 -10.6809 -23.0856 -22.856 5.69081 -8.04565 5.07674 -0.0762467 15.547 -0.0478985 -13.3735 -31.2679 -45.4052 -17.8596 -28.9929 -27.43 2.8745 20.089 -6.42285 10 -5.92627e-014 1.10698e-014 -7.53121 -1.37398 -24.3703 13.6789 -21.6178 4.32315 0.0023211 0.0110973 0.148285 -10 -5.80079e-014 -8.82728e-015 15.1032 3.20727 9.36704 -14.5474 -22.5212 -5.23095 1.06804 -3.2088 34.3016 -4.10867 -7.47915 -8.83898 6.52558 22.4411 -17.9003 
-36.5373 39.0843 -3.03527 -13.4097 -2.56399 120.228 -1.49785 -17.0768 -5.71399 -0.0042394 21.892 -0.36122 -10.6521 -23.15 -22.7092 5.65986 -7.71806 4.99738 -0.0760921 15.5601 -0.0481602 -13.36 -31.2631 -45.3203 -17.4914 -28.524 -27.1428 2.76481 19.7553 -6.37576 10 -5.92627e-014 1.10698e-014 -7.49125 -1.21641 -24.2603 13.7014 -21.6485 4.33394 0.00234729 0.00329121 0.0439769 -10 -5.80079e-014 -8.82728e-015 15.2366 3.46706 9.30844 -14.7077 -22.7301 -5.31457 1.06091 -3.19882 34.1788 -3.96065 -7.35978 -8.71009 6.4455 22.2893 -17.6439 
-36.5017 39.0936 -3.05808 -13.0206 -2.34616 119.875 -1.32606 -16.3781 -5.40539 -0.00410762 21.6162 -0.35936 -10.5383 -22.9863 -22.5923 5.75585 -7.21521 5.33659 -0.0760296 15.5971 -0.0483273 -13.5782 -31.3313 -45.3822 -17.2014 -28.2416 -26.6795 2.73837 19.5507 -6.27902 10 -5.92627e-014 1.10698e-014 -7.50805 -0.995779 -24.1518 13.7569 -21.7229 4.36767 0.00231121 0.015948 0.138712 -10 -5.80079e-014 -8.82728e-015 15.2839 3.58846 9.14515 -14.7279 -22.7563 -5.32502 1.06837 -3.20383 34.2405 -3.85661 -7.48687 -8.62353 6.07447 22.7651 -17.4113 
-36.5148 39.0965 -3.09235 -12.7193 -2.34146 120.07 -1.30096 -16.1465 -5.58756 -0.00308632 21.6788 -0.35835 -10.5616 -23.0234 -22.5842 5.75311 -6.99016 5.09858 -0.0760467 15.6786 -0.0483469 -13.597 -31.3451 -45.3171 -16.8918 -27.9339 -26.5686 2.73611 19.487 -6.29329 10 -5.92627e-014 1.10698e-014 -7.60792 -1.14133 -24.2071 13.7798 -21.7551 4.37131 0.00221814 0.0237608 0.317512 -10 -5.80079e-014 -8.82728e-015 15.27 3.30383 8.9158 -14.5393 -22.5106 -5.22671 1.08858 -3.2373 34.6532 -4.15377 -7.5571 -8.51768 6.52225 22.9165 -17.2456 
-36.5111 39.1018 -3.12297 -12.4244 -2.3353 120.203 -1.23549 -15.8726 -5.68185 -0.00332945 21.704 -0.357265 -10.5505 -23.0271 -22.6034 5.81169 -6.70239 4.93643 -0.0762692 15.6679 -0.0481288 -13.6378 -31.4095 -45.324 -16.5865 -27.6493 -26.4362 2.62151 19.3675 -6.27499 10 -5.92627e-014 1.10698e-014 -7.61325 -1.14921 -24.2836 13.8317 -21.8256 4.39622 0.00206559 0.0371146 0.438772 -10 -5.80079e-014 -8.82728e-015 15.382 3.2714 9.1656 -14.5363 -22.5067 -5.22516 1.07642 -3.22047 34.4453 -4.11769 -7.45557 -8.49733 6.46645 22.8606 -17.2017 
-36.5301 39.1059 -3.15345 -12.3202 -2.36566 120.298 -1.19165 -15.8316 -5.57334 -0.00428462 21.7159 -0.356181 -10.5335 -22.86 -22.7122 5.78478 -6.64258 4.81735 -0.0766493 15.6719 -0.0474916 -13.5648 -31.3427 -45.3109 -16.3553 -27.5776 -26.3642 2.57727 19.4062 -6.27329 10 -5.92627e-014 1.10698e-014 -7.71932 -1.24295 -24.3886 13.9516 -21.988 4.45393 0.0020582 0.0313053 0.533707 -10 -5.80079e-014 -8.82728e-015 15.3853 3.17574 9.48366 -14.6755 -22.6882 -5.29768 1.0511 -3.185 34.0092 -3.44711 -7.1699 -8.52949 5.17656 22.178 -17.096 
-36.5482 39.1095 -3.1848 -12.0977 -2.41153 120.486 -1.11806 -15.6845 -5.64191 -0.00546296 21.729 -0.355152 -10.5694 -22.8042 -22.8676 5.79997 -6.50212 4.5969 -0.077234 15.7 -0.0461998 -13.498 -31.3013 -45.241 -16.0345 -27.3292 -26.2832 2.51155 19.3804 -6.2817 10 -5.92627e-014 1.10698e-014 -7.74058 -1.25453 -24.5616 13.9879 -22.0371 4.47147 0.00209094 0.0291072 0.509574 -10 -5.80079e-014 -8.82728e-015 15.4715 3.04517 9.51976 -14.7303 -22.7593 -5.32628 1.05062 -3.18433 34.0009 -4.07648 -6.8315 -8.53634 6.54132 21.8796 -17.3117 
-36.5592 39.1103 -3.21269 -11.8781 -2.45138 120.67 -1.05376 -15.55 -5.75609 -0.00634361 21.7632 -0.354243 -10.58 -22.7006 -23.0145 5.85673 -6.37411 4.38821 -0.0779088 15.7897 -0.0445445 -13.5975 -31.3569 -45.2168 -15.7285 -27.0752 -26.2873 2.38928 19.3262 -6.30241 10 -5.92627e-014 1.10698e-014 -7.84603 -1.34173 -24.2244 13.8588 -21.8624 4.40925 0.00219514 0.0257532 0.344137 -10 -5.80079e-014 -8.82728e-015 15.575 2.95595 9.58974 -14.7843 -22.8296 -5.35468 1.04173 -3.17174 33.8467 -4.36654 -6.27406 -8.95349 7.04323 21.4646 -18.2461 
